HIERARCHY
ROOT Hips
{
  OFFSET 0.00355045 101.413 203.47
  CHANNELS 6 Xposition Yposition Zposition Zrotation Xrotation Yrotation
  JOINT RightUpLeg
  {
    OFFSET -8.9458 -8.66707 0.101652
    CHANNELS 3 Zrotation Xrotation Yrotation
    JOINT RightLeg
    {
      OFFSET 0 -44.4227 1.3727
      CHANNELS 3 Zrotation Xrotation Yrotation
      JOINT RightFoot
      {
        OFFSET 0.253549 -42.0924 -1.46059
        CHANNELS 3 Zrotation Xrotation Yrotation
        JOINT RightToes
        {
          OFFSET 0.04 -4.41509 8.4991
          CHANNELS 3 Zrotation Xrotation Yrotation
          End Site
          {
            OFFSET -0.08 -0.137448 9.77979
          }
        }
      }
    }
  }
  JOINT Spine
  {
    OFFSET 0 11.8905 0
    CHANNELS 3 Zrotation Xrotation Yrotation
    JOINT Spine1
    {
      OFFSET 0 25.6574 0.127663
      CHANNELS 3 Zrotation Xrotation Yrotation
      JOINT HEad
      {
        OFFSET 0 8.73416 0.011341
        CHANNELS 3 Zrotation Xrotation Yrotation
        End Site
        {
          OFFSET -0.29 12.7742 2.51395
        }
      }
      JOINT LeftShoulder1
      {
        OFFSET 8.99 -0.362252 -0.22
        CHANNELS 3 Zrotation Xrotation Yrotation
        JOINT LeftArm
        {
          OFFSET 10.2827 -0.00338 0.322123
          CHANNELS 3 Zrotation Xrotation Yrotation
          JOINT LeftForeArm
          {
            OFFSET 32.7669 0.099144 -1.42434
            CHANNELS 3 Zrotation Xrotation Yrotation
            JOINT LeftHand
            {
              OFFSET 27.5643 0.085362 1.02216
              CHANNELS 3 Zrotation Xrotation Yrotation
              End Site
              {
                OFFSET 16.7443 -0.6 1.50291
              }
            }
          }
        }
      }
      JOINT RightShoulder
      {
        OFFSET -8.99 -0.362252 -0.22
        CHANNELS 3 Zrotation Xrotation Yrotation
        JOINT RightArm
        {
          OFFSET -10.2827 -0.00338 0.322123
          CHANNELS 3 Zrotation Xrotation Yrotation
          JOINT RightForeArm
          {
            OFFSET -32.8971 0.099144 -1.42434
            CHANNELS 3 Zrotation Xrotation Yrotation
            JOINT RightHand
            {
              OFFSET -27.4921 0.085362 1.02216
              CHANNELS 3 Zrotation Xrotation Yrotation
              End Site
              {
                OFFSET -16.6312 -0.6 1.50291
              }
            }
          }
        }
      }
    }
  }
  JOINT LeftUpLeg
  {
    OFFSET 8.9458 -8.66707 0.101652
    CHANNELS 3 Zrotation Xrotation Yrotation
    JOINT LeftLeg
    {
      OFFSET 0 -44.4227 1.3727
      CHANNELS 3 Zrotation Xrotation Yrotation
      JOINT LeftFoot
      {
        OFFSET -0.253549 -42.0924 -1.46059
        CHANNELS 3 Zrotation Xrotation Yrotation
        JOINT LeftToes
        {
          OFFSET -0.04 -4.41509 8.4991
          CHANNELS 3 Zrotation Xrotation Yrotation
          End Site
          {
            OFFSET 0.08 -0.047448 9.77979
          }
        }
      }
    }
  }
}
MOTION
Frames:	19
Frame Time:	0.0166667
0.342444 101.314 205.035 -5.47826 -0.138583 -179.213 -4.96924 6.51155 -0.321178 2.77131 32.3668 14.6602 -11.5412 -3.613 -0.179177 0.0462048 0.000533964 0.662642 -1.78676 3.92763 -0.999196 -6.48599 -1.09399 -0.159933 3.19034 13.3182 -0.758947 -4.28629e-016 -3.97569e-016 -3.72721e-017 -79.7324 -30.0967 -7.01025 -21.961 11.572 1.59642 0.368473 9.90896 -0.00117926 3.73826 0.228475 -1.55831 87.0595 -28.1931 13.9317 19.384 11.7053 -2.39337 -0.369625 9.91382 0.00119886 -8.34126 -20.4709 1.20365 -0.371771 21.5034 12.3089 -0.813992 -8.04576 0.0459041 -7.08622e-011 -9.56623e-011 1.70207e-011 
0.00355045 101.413 203.47 -5.54967 0.0302386 -179.148 -5.34391 4.6841 -1.87909 1.86909 36.3172 16.5229 -10.6472 0.209263 0.168754 -9.08449 6.61088 6.79749 -2.12687 4.02237 -0.876366 -6.19395 -0.917075 -0.149316 3.01842 13.445 -0.978669 -2.93518e-016 7.95139e-016 4.96962e-017 -80.2685 -29.7732 -7.41774 -21.7537 11.5756 1.70438 0.368473 9.90896 -0.00117926 3.13957 0.192182 -1.79877 87.5962 -28.9782 13.701 18.8082 11.7389 -2.52792 -0.369625 9.91382 0.00119886 -8.79736 -19.4991 0.318354 -0.462862 22.0327 12.9295 -0.615875 -9.2158 0.0577872 0.000941046 -0.725759 -0.0260257 
-0.316852 101.482 201.951 -5.6322 0.165434 -179.183 -5.69571 2.67735 -3.39392 0.516792 40.3864 18.8615 -9.97334 3.51467 0.468825 -15.3984 12.5121 10.3148 -2.52359 4.12297 -0.737354 -5.88533 -0.725218 -0.138861 2.79691 13.4642 -1.12793 2.60905e-016 0 4.96962e-017 -80.7875 -29.4243 -7.81835 -21.6229 11.5877 1.7257 0.368473 9.90896 -0.00117926 2.51208 0.161696 -1.9869 88.1921 -29.6696 13.6038 18.2362 11.7673 -2.69363 -0.369625 9.91382 0.00119886 -9.15685 -18.6184 -0.424913 -0.623316 22.6034 13.586 -0.495489 -10.3831 0.065652 0.0112936 -1.50834 -0.0228798 
-0.594194 101.445 200.572 -5.76969 0.209281 -179.529 -5.8291 0.125421 -5.01919 -1.97407 45.0917 23.1243 -9.71619 5.49283 0.634996 -9.69898 18.1167 5.536 -3.15403 4.26322 -0.527153 -5.4924 -0.474633 -0.12833 2.3762 13.1534 -1.07761 9.00743e-017 -7.95139e-016 -2.48481e-017 -81.2941 -29.0246 -8.16666 -21.7182 11.63 1.46387 0.368473 9.90896 -0.00117926 1.70464 0.145725 -2.03522 89.0591 -30.1191 13.9128 17.6282 11.7809 -2.97491 -0.369625 9.91382 0.00119886 -9.36633 -18.0596 -0.898385 -0.96421 23.3934 14.4727 -0.633946 -11.5724 0.0607389 0.0404296 -2.54183 0.0245038 
-0.828217 101.413 199.236 -5.87211 0.20047 -179.953 -5.90314 -2.56879 -6.17709 -5.01605 49.3574 26.6674 -9.89253 6.50798 0.732369 2.71451 20.5728 -2.90854 -3.7126 4.36522 -0.346095 -5.15189 -0.236938 -0.119072 2.00329 12.7499 -0.932492 6.91087e-017 0 7.45443e-017 -81.7227 -28.5536 -8.58004 -21.8967 11.6709 1.16168 0.368473 9.90896 -0.00117926 1.05731 0.141326 -1.9967 89.855 -30.3854 14.356 17.1172 11.7873 -3.24298 -0.369625 9.91382 0.00119886 -9.38502 -17.5224 -0.980369 -1.39887 24.0458 15.1384 -0.802493 -12.6986 0.0525608 0.110011 -3.47127 0.188003 
-1.00103 101.497 197.869 -5.83855 0.161838 179.719 -5.80622 -5.11388 -6.06658 -6.18883 52.7286 24.7226 -10.6598 6.54353 0.8001 16.3651 15.3282 -11.6302 -3.88928 4.3431 -0.29563 -5.00235 -0.0767079 -0.11269 1.92297 12.4376 -0.731887 2.88859e-016 0 -0 -81.9627 -27.9625 -9.16846 -22.0699 11.6858 1.00287 0.368473 9.90896 -0.00117926 0.944376 0.152363 -1.86253 90.2462 -30.4763 14.739 16.8395 11.7938 -3.37261 -0.369625 9.91382 0.00119886 -9.07785 -16.7294 -0.372956 -1.88193 24.2093 15.0418 -0.792784 -13.7142 0.0484795 0.254962 -3.70294 0.577838 
-1.14095 101.63 196.501 -5.74762 0.0832787 179.457 -5.59581 -7.60715 -5.47203 -5.79276 55.4137 20.3529 -11.8565 5.93135 0.830309 27.2712 8.17533 -18.9358 -3.86962 4.25481 -0.317747 -4.97023 0.0287185 -0.108178 1.98896 12.1533 -0.542142 2.36057e-016 0 -0 -82.1318 -27.3067 -9.89828 -22.2274 11.6783 0.968707 0.368473 9.90896 -0.00117926 1.11135 0.167141 -1.73049 90.377 -30.4069 15.0839 16.7444 11.7933 -3.43755 -0.369625 9.91382 0.00119886 -8.69015 -15.8306 0.520109 -2.28161 24.0893 14.5884 -0.722101 -14.5317 0.0466414 0.44436 -4.14669 1.09427 
-1.26936 101.794 195.135 -5.64405 -0.0480233 179.29 -5.46131 -10.0157 -4.86287 -4.69766 57.3315 16.2392 -13.6464 5.02404 0.849861 33.3599 3.68124 -22.3838 -3.70291 4.11271 -0.401393 -5.05351 0.0689325 -0.105082 2.14053 11.9138 -0.43966 6.21202e-017 -1.59028e-015 1.98785e-016 -82.2801 -26.6544 -10.7711 -22.3513 11.635 1.13231 0.368473 9.90896 -0.00117926 1.46574 0.177965 -1.67987 90.2268 -30.1771 15.3319 16.86 11.7761 -3.48461 -0.369625 9.91382 0.00119886 -8.40725 -14.874 1.48577 -2.40251 23.7229 13.919 -0.653171 -14.9688 0.0460431 0.697149 -5.80405 1.69409 
-1.38922 101.957 193.788 -5.52668 -0.201092 179.215 -5.32358 -12.3944 -4.38605 -3.29644 58.5637 12.4574 -15.2321 3.74256 0.797181 36.7552 0.225061 -23.8224 -3.4909 3.96762 -0.506925 -5.17621 0.0785703 -0.103344 2.35836 11.6645 -0.432037 3.72721e-016 -7.95139e-016 -1.98785e-016 -82.5023 -25.9165 -11.7923 -22.3736 11.5825 1.40159 0.368473 9.90896 -0.00117926 1.89632 0.176689 -1.75732 89.9632 -29.8416 15.5364 17.0856 11.758 -3.46942 -0.369625 9.91382 0.00119886 -8.20137 -13.8995 2.27358 -2.46165 23.2391 13.3206 -0.541339 -15.263 0.0515018 0.997016 -7.80387 2.32993 
-1.50752 102.081 192.485 -5.407 -0.361724 179.249 -5.23742 -14.841 -4.37506 -2.49159 59.3633 10.3381 -15.5791 1.94551 0.572507 37.4651 -2.1834 -23.7175 -3.35842 3.88989 -0.589759 -5.26359 0.0559293 -0.10474 2.61217 11.3331 -0.564205 6.70898e-016 0 -0 -82.9529 -25.0611 -13.0097 -22.1546 11.5389 1.76854 0.368473 9.90896 -0.00117926 2.24613 0.15009 -2.0614 89.7665 -29.4456 15.731 17.329 11.7515 -3.35906 -0.369625 9.91382 0.00119886 -8.0687 -12.9674 2.39825 -2.65505 22.7548 13.3705 -0.353414 -15.6527 0.069648 1.08294 -9.27682 2.29386 
-1.63354 102.165 191.214 -5.28926 -0.492463 179.368 -5.22288 -17.1825 -4.79233 -2.07999 59.6241 9.34657 -15.5968 0.171968 0.318931 37.2957 -3.9975 -23.0002 -3.28264 3.83332 -0.653857 -5.30993 0.0996167 -0.103312 2.87131 10.9894 -0.800103 -4.96962e-016 -7.95139e-016 1.98785e-016 -83.4716 -23.9883 -14.2895 -21.8929 11.5161 2.05436 0.368473 9.90896 -0.00117926 2.55876 0.105727 -2.51566 89.5841 -29.0159 15.9185 17.5917 11.756 -3.16609 -0.369625 9.91382 0.00119886 -8.01137 -12.076 2.37811 -2.77849 22.376 13.3083 -0.117365 -15.9522 0.0941707 1.58427 -11.2222 3.51077 
-1.78488 102.183 189.978 -5.20818 -0.542974 179.558 -5.35087 -19.2721 -5.8176 -2.06651 59.2713 9.57586 -15.9137 -0.986526 0.163534 38.0919 -5.55496 -23.077 -3.3147 3.77487 -0.685093 -5.30254 0.344295 -0.0907004 3.10713 10.6771 -1.11506 2.11209e-016 0 9.93923e-017 -83.9326 -22.5434 -15.5254 -21.7679 11.5336 2.05571 0.368473 9.90896 -0.00117926 2.84641 0.0480305 -3.06027 89.4068 -28.6014 16.103 17.8473 11.7791 -2.86285 -0.369625 9.91382 0.00119886 -8.11656 -11.274 2.63151 -2.67313 22.3175 12.2186 0.132835 -15.7703 0.115241 4.33618 -15.8133 9.68327 
-1.94358 102.175 188.761 -5.08708 -0.537625 179.807 -5.54243 -21.1085 -7.15141 -2.07877 58.2558 9.90918 -16.2563 -1.82761 0.0490308 38.6803 -6.75784 -23.1162 -3.35801 3.71541 -0.693119 -5.18785 0.680096 -0.0758988 3.28718 10.4027 -1.52066 5.2181e-016 -7.95139e-016 -0 -84.3721 -20.8837 -16.6962 -21.7 11.5888 1.8385 0.368473 9.90896 -0.00117926 3.04538 -0.0267562 -3.74393 89.2862 -28.1801 16.3138 18.086 11.8079 -2.53695 -0.369625 9.91382 0.00119886 -8.23018 -10.467 2.94758 -2.45055 22.3395 11.1603 0.44695 -15.9617 0.149644 7.30568 -18.1675 15.2306 
-2.10159 102.186 187.553 -4.81334 -0.470292 -179.882 -5.62334 -22.6353 -8.51973 -1.79975 56.4224 9.07205 -16.5545 -2.42797 -0.0361606 38.1895 -7.71821 -22.4899 -3.28298 3.64662 -0.677717 -4.85279 1.06594 -0.0650638 3.33439 10.1868 -2.07694 -2.08103e-016 0 -9.93923e-017 -84.8231 -19.0438 -17.7362 -21.6766 11.695 1.34465 0.368473 9.90896 -0.00117926 3.03076 -0.131317 -4.6939 89.3375 -27.7026 16.6397 18.2795 11.822 -2.33519 -0.369625 9.91382 0.00119886 -8.16986 -9.53176 3.30644 -2.14482 22.256 11.2768 0.972084 -17.938 0.233349 5.07196 -11.3156 11.9844 
-2.24681 102.181 186.336 -4.53119 -0.38213 -179.572 -5.72384 -23.9015 -9.95396 -1.42551 53.9698 7.95556 -16.8447 -2.85921 -0.100343 37.7061 -8.2035 -22.0026 -3.23977 3.57287 -0.654357 -4.46258 1.43012 -0.0583403 3.35842 10.0311 -2.6146 6.91864e-016 0 -4.96962e-017 -85.2449 -17.2292 -18.6998 -21.6703 11.8207 0.741748 0.368473 9.90896 -0.00117926 2.99571 -0.234094 -5.61463 89.3565 -27.3001 16.9052 18.4591 11.8523 -2.05251 -0.369625 9.91382 0.00119886 -8.09485 -8.60426 3.55756 -1.83252 22.1805 11.4073 1.39555 -19.6368 0.303281 3.72853 -5.85303 9.80875 
-2.36237 102.133 185.089 -4.37909 -0.327215 -179.321 -5.95528 -24.9502 -11.4154 -0.863546 51.0457 6.87501 -17.2156 -3.23762 -0.159164 38.3564 -7.9435 -22.5302 -3.38995 3.49519 -0.63895 -4.16331 1.65857 -0.0597543 3.49163 9.94864 -2.93815 -2.45375e-016 -7.95139e-016 -0 -85.6383 -15.705 -19.6232 -21.6192 11.9411 0.190867 0.368473 9.90896 -0.00117926 3.1505 -0.301393 -6.18431 89.1328 -27.1803 16.9102 18.6263 11.9375 -1.44897 -0.369625 9.91382 0.00119886 -8.1333 -7.83178 3.42859 -1.62133 22.1352 10.3052 1.30146 -18.6305 0.275125 7.78354 -14.493 19.2936 
-2.45448 102.053 183.812 -4.25707 -0.260713 -179.136 -6.17432 -25.7557 -12.8266 -0.332405 47.6791 5.98109 -17.4466 -3.5059 -0.202166 39.0599 -7.13388 -23.2572 -3.57001 3.41523 -0.62994 -3.89886 1.83728 -0.0638216 3.59794 9.92999 -3.18781 3.41661e-016 1.59028e-015 4.96962e-017 -85.967 -14.302 -20.473 -21.6218 12.0539 -0.345138 0.368473 9.90896 -0.00117926 3.33293 -0.353648 -6.6089 88.8235 -27.0616 16.8256 18.8382 12.0307 -0.774965 -0.369625 9.91382 0.00119886 -8.14591 -7.05528 3.27117 -1.46668 22.1824 9.3758 1.10466 -17.4265 0.233743 15.0786 -23.3482 29.0674 
-2.52678 101.94 182.495 -4.09261 -0.136233 -179.065 -6.24242 -26.3142 -14.1038 0.113997 43.9829 5.39256 -17.2617 -3.70355 -0.232014 39.0249 -5.69959 -23.6779 -3.64133 3.33709 -0.628495 -3.64398 2.04297 -0.0653029 3.5271 9.99112 -3.46149 -9.06955e-016 -1.59028e-015 -9.93923e-017 -86.1735 -12.8936 -21.233 -21.8042 12.1403 -0.829687 0.368473 9.90896 -0.00117926 3.39149 -0.399081 -6.99526 88.5479 -26.642 16.7799 19.1903 12.0933 -0.224979 -0.369625 9.91382 0.00119886 -8.02822 -6.11893 3.41972 -1.34935 22.4612 10.0911 1.15267 -18.2309 0.251857 12.4732 -25.5083 23.1118 
-2.57012 101.802 181.14 -3.94246 -0.0125104 -179.039 -6.22875 -26.626 -15.2126 0.483134 39.8913 5.19357 -16.9158 -3.65655 -0.22495 38.494 -4.1851 -23.7775 -3.69095 3.25432 -0.642356 -3.45253 2.18941 -0.0674865 3.4492 10.0678 -3.68983 5.90142e-016 -7.95139e-016 4.96962e-017 -86.3037 -11.6212 -21.892 -22.0254 12.2259 -1.32239 0.368473 9.90896 -0.00117926 3.49941 -0.440176 -7.31889 88.201 -26.191 16.7004 19.5788 12.1451 0.271249 -0.369625 9.91382 0.00119886 -7.87161 -5.16437 3.64572 -1.30325 22.8176 11.0099 1.22483 -19.52 0.278732 7.91828 -25.416 14.7251 
